<svg xmlns="http://www.w3.org/2000/svg" width="900" height="560" viewBox="0 0 900 560">
<rect width="900" height="560" rx="28" fill="#F8FAFC"/>

<text x="54" y="58" font-family="Malgun Gothic, Arial, sans-serif" font-size="14" font-weight="800" fill="#64748B">CLEAR MERIT · SAMPLE OUTPUT</text>
<text x="54" y="98" font-family="Malgun Gothic, Arial, sans-serif" font-size="30" font-weight="800" fill="#0F172A">흩어진 반복업무 → 한눈에 보는 결과물</text>
<rect x="54" y="138" width="792" height="344" rx="24" fill="white" stroke="#E2E8F0"/>
<rect x="82" y="170" width="226" height="278" rx="18" fill="#F8FAFC"/>
<rect x="337" y="170" width="226" height="278" rx="18" fill="#F8FAFC"/>
<rect x="592" y="170" width="226" height="278" rx="18" fill="#F8FAFC"/>
<text x="102" y="204" font-family="Malgun Gothic, Arial, sans-serif" font-size="13" font-weight="800" fill="#475569">COMPARE</text>
<text x="357" y="204" font-family="Malgun Gothic, Arial, sans-serif" font-size="13" font-weight="800" fill="#475569">QUOTE OPS</text>
<text x="612" y="204" font-family="Malgun Gothic, Arial, sans-serif" font-size="13" font-weight="800" fill="#475569">OVERFLOW</text>
<rect x="102" y="232" width="160" height="12" rx="6" fill="#CBD5E1"/><rect x="102" y="258" width="126" height="12" rx="6" fill="#E2E8F0"/><rect x="102" y="284" width="146" height="12" rx="6" fill="#E2E8F0"/><rect x="357" y="232" width="160" height="12" rx="6" fill="#CBD5E1"/><rect x="357" y="258" width="126" height="12" rx="6" fill="#E2E8F0"/><rect x="357" y="284" width="146" height="12" rx="6" fill="#E2E8F0"/><rect x="612" y="232" width="160" height="12" rx="6" fill="#CBD5E1"/><rect x="612" y="258" width="126" height="12" rx="6" fill="#E2E8F0"/><rect x="612" y="284" width="146" height="12" rx="6" fill="#E2E8F0"/><rect x="102" y="330" width="160" height="70" rx="14" fill="#EEF2FF"/><text x="182" y="371" text-anchor="middle" font-family="Malgun Gothic, Arial, sans-serif" font-size="15" font-weight="800" fill="#4338CA">비교표 1장</text><rect x="357" y="330" width="160" height="70" rx="14" fill="#ECFEFF"/><text x="437" y="371" text-anchor="middle" font-family="Malgun Gothic, Arial, sans-serif" font-size="15" font-weight="800" fill="#0F766E">상태 1화면</text><rect x="612" y="330" width="160" height="70" rx="14" fill="#ECFDF5"/><text x="692" y="371" text-anchor="middle" font-family="Malgun Gothic, Arial, sans-serif" font-size="15" font-weight="800" fill="#15803D">정리본 + 로그</text>
</svg>